<svg width="16" height="20" viewBox="0 0 16 20" fill="none" xmlns="http://www.w3.org/2000/svg">
<path fill-rule="evenodd" clip-rule="evenodd" d="M0.710938 8.45307C0.710938 4.37055 3.96511 1.04199 8.0026 1.04199C12.0401 1.04199 15.2943 4.37055 15.2943 8.45307C15.2943 10.424 14.7326 12.5402 13.7396 14.3685C12.7479 16.1946 11.299 17.7813 9.48636 18.6286C8.54474 19.0687 7.46046 19.0687 6.51885 18.6286C4.70625 17.7813 3.25729 16.1946 2.26557 14.3685C1.27263 12.5402 0.710938 10.424 0.710938 8.45307ZM8.0026 2.29199C4.6763 2.29199 1.96094 5.03989 1.96094 8.45307C1.96094 10.2006 2.46313 12.1132 3.36402 13.772C4.26614 15.433 5.54095 16.7917 7.04814 17.4962C7.65431 17.7795 8.35089 17.7795 8.95707 17.4962C10.4643 16.7917 11.7391 15.433 12.6412 13.772C13.5421 12.1132 14.0443 10.2006 14.0443 8.45307C14.0443 5.03989 11.3289 2.29199 8.0026 2.29199ZM8.0026 6.45866C6.96707 6.45866 6.1276 7.29813 6.1276 8.33366C6.1276 9.36919 6.96707 10.2087 8.0026 10.2087C9.03814 10.2087 9.8776 9.36919 9.8776 8.33366C9.8776 7.29813 9.03814 6.45866 8.0026 6.45866ZM4.8776 8.33366C4.8776 6.60777 6.27671 5.20866 8.0026 5.20866C9.72849 5.20866 11.1276 6.60777 11.1276 8.33366C11.1276 10.0595 9.72849 11.4587 8.0026 11.4587C6.27671 11.4587 4.8776 10.0595 4.8776 8.33366Z" fill="#3D8F84" stroke="#3D8F84" stroke-width="0.3"/>
</svg>
